# xmcd
#
# Track frame offsets: 
#        150
#        64832
#        108653
#        144990
#        188826
#        234813
#        275263
#
# Disc length: 4364 seconds
#
# Revision: 1
# Processed by: cddbd v1.5.2PL0 Copyright (c) Steve Scherf et al.
# Submitted via: ExactAudioCopy v0.95a5
#
DISCID=5b110a07
DTITLE=Tyrone Hill and Elliott Levin 4tet - Soul-Etude
DYEAR=1999
DGENRE=Avantgarde
TTITLE0=We're Living in a Space Age
TTITLE1=R.O.D.
TTITLE2=Revolving Door
TTITLE3=The Long March
TTITLE4=Soul Etude
TTITLE5=PGC Blues take 2
TTITLE6=PGC Blues take 3
EXTD=YEAR: 1999
EXTT0=
EXTT1=
EXTT2=
EXTT3=
EXTT4=
EXTT5=
EXTT6=
PLAYORDER=
